<?xml version="1.0" encoding="UTF-8" standalone="no"?>
<!-- Created with Inkscape (http://www.inkscape.org/) -->

<svg
   width="210.00821mm"
   height="239.04282mm"
   viewBox="0 0 210.00821 239.04282"
   version="1.1"
   id="svg1"
   xml:space="preserve"
   xmlns="http://www.w3.org/2000/svg"
   xmlns:svg="http://www.w3.org/2000/svg"><defs
     id="defs1" /><g
     id="layer1"
     transform="translate(0.00820898,-28.986053)"><path
       style="fill:#000000;stroke-width:1.76478"
       d="M 3.8767543,267.08596 C 0.05114593,265.19228 -0.60440183,262.33723 0.43261067,252.08591 2.5173214,231.47769 11.094969,212.70958 25.260903,197.76103 c 15.453845,-16.30761 34.745579,-25.87157 56.960901,-28.23862 5.88386,-0.62692 39.684896,-0.62646 45.562676,6.2e-4 21.75818,2.32134 41.11459,11.75684 56.15724,27.37446 7.22043,7.4964 11.88075,14.13933 16.59035,23.64826 4.8391,9.77043 7.93014,20.553 9.0416,31.54016 1.02315,10.11434 0.32595,13.16678 -3.42179,14.98103 l -1.98708,0.96193 -99.19235,-3.7e-4 C 6.4294588,268.02813 5.7676426,268.02144 3.8767543,267.08596 Z M 97.06529,154.55336 C 83.121876,152.59388 70.566388,146.33529 60.614878,136.38379 51.278014,127.04693 45.912993,117.03412 43.05434,103.61034 c -1.159204,-5.443435 -1.159204,-17.78618 0,-23.229616 2.863227,-13.445258 8.251598,-23.507928 17.546956,-32.768559 24.912358,-24.819288 64.187984,-24.83699 88.785214,-0.04001 9.37661,9.452761 14.70591,19.405548 17.5676,32.808575 1.15882,5.427394 1.13766,17.738108 -0.0401,23.2881 -2.84543,13.40958 -8.15144,23.31724 -17.52757,32.72854 -11.7998,11.84404 -25.79766,17.8971 -42.51565,18.38494 -3.72378,0.10871 -8.136286,0.005 -9.805575,-0.22895 z"
       id="path1" /></g></svg>
