<?xml version="1.0" encoding="UTF-8"?>
<!-- Generator: Adobe Illustrator 16.0.0, SVG Export Plug-In . SVG Version: 6.00 Build 0)  -->
<!DOCTYPE svg PUBLIC "-//W3C//DTD SVG 1.1//EN" "http://www.w3.org/Graphics/SVG/1.1/DTD/svg11.dtd">
<svg version="1.1" xmlns="http://www.w3.org/2000/svg" xmlns:xlink="http://www.w3.org/1999/xlink" x="0px" y="0px" width="269.667px" height="98.666px" viewBox="0 0 269.667 98.666" enable-background="new 0 0 269.667 98.666" xml:space="preserve">
<g id="Layer_1" display="none">
</g>
<g id="Layer_2">
	<rect x="36.116" y="52.507" fill="#7FA830" width="28.416" height="33.941"/>
	<g>
		<path d="M23.142,44.139c-1.243,1.144-2.649,1.997-4.217,2.559c-1.567,0.561-3.346,0.843-5.335,0.843    c-1.376,0-2.659-0.186-3.844-0.558c-1.187-0.37-2.214-0.917-3.083-1.64c-0.871-0.723-1.56-1.62-2.066-2.693    c-0.507-1.074-0.76-2.313-0.76-3.719c0-6.821,5.604-10.233,16.811-10.233h2.439c0-1.543-0.048-2.678-0.144-3.4    c-0.096-0.481-0.229-0.922-0.401-1.324c-0.172-0.401-0.421-0.752-0.746-1.054c-0.344-0.521-0.889-0.897-1.635-1.128    s-1.646-0.348-2.697-0.348c-1.894,0-3.324,0.367-4.289,1.1c-0.966,0.732-1.516,1.82-1.649,3.266H4.983    c0.382-6.061,4.628-9.09,12.737-9.09c1.969,0,3.705,0.161,5.207,0.481c1.501,0.321,2.855,0.894,4.06,1.716    c1.129,0.763,1.97,1.836,2.525,3.221c0.554,1.385,0.832,3.271,0.832,5.658v19.053h-7.201V44.139z M23.085,33.273h-2.812    c-3.022,0-5.278,0.406-6.77,1.219c-1.492,0.813-2.238,2.143-2.238,3.987c0,1.385,0.449,2.413,1.348,3.086s2.094,1.008,3.586,1.008    c0.688,0,1.367-0.085,2.037-0.256c0.669-0.17,1.301-0.401,1.894-0.692c0.592-0.29,1.143-0.651,1.649-1.083s0.942-0.908,1.306-1.43    V33.273z"/>
		<path d="M44.113,21.113c2.858-2.93,6.091-4.395,9.697-4.395c7.147,0,10.722,3.623,10.722,10.865v19.264h-8.129V28.187    c0-1.505-0.192-2.685-0.576-3.537c-0.384-0.853-1.014-1.429-1.889-1.73c-0.918-0.281-1.964-0.341-3.137-0.181    c-2.156,0.161-4.31,1.415-6.464,3.762v20.348h-8.128V17.381h7.905V21.113z"/>
		<path d="M94.686,46.848H68.695v-5.629L84.531,23.25H69.699v-5.869h23.984v5.629l-15.75,18.028h16.753V46.848z"/>
		<path d="M110.842,47.54c-2.315,0-4.365-0.356-6.153-1.069c-1.79-0.711-3.296-1.73-4.519-3.055    c-1.225-1.324-2.162-2.939-2.812-4.846c-0.65-1.906-0.975-4.053-0.975-6.441c0-2.428,0.32-4.594,0.96-6.501    c0.641-1.906,1.564-3.521,2.769-4.846c1.204-1.325,2.673-2.333,4.403-3.024c1.73-0.693,3.706-1.039,5.925-1.039    c2.122,0,4.039,0.332,5.751,0.993c1.712,0.662,3.175,1.64,4.39,2.935c1.214,1.295,2.146,2.89,2.797,4.786    c0.649,1.896,0.976,4.06,0.976,6.485v1.837H103.87c0.058,1.545,0.272,2.874,0.646,3.987c0.373,1.114,0.865,2.027,1.478,2.74    c0.611,0.712,1.329,1.238,2.152,1.579c0.821,0.342,1.721,0.512,2.696,0.512c1.51,0,2.791-0.341,3.844-1.023    c1.051-0.682,1.816-1.855,2.295-3.521h6.799c-0.268,1.525-0.771,2.88-1.506,4.063c-0.736,1.185-1.664,2.183-2.783,2.995    c-1.118,0.813-2.409,1.425-3.873,1.835C114.154,47.334,112.563,47.54,110.842,47.54z M116.98,29.09    c-0.287-2.568-0.999-4.484-2.138-5.75c-1.138-1.264-2.606-1.896-4.402-1.896c-1.779,0-3.238,0.633-4.376,1.896    c-1.138,1.266-1.85,3.182-2.137,5.75H116.98z"/>
		<path d="M136.443,46.848h-8.167V3.625h8.167V46.848z"/>
		<path d="M150.011,10.127h-8.041V3.625h8.041V10.127z M150.011,46.848h-8.041V17.381h8.041V46.848z"/>
		<path d="M163.479,21.113c2.848-2.93,6.069-4.395,9.66-4.395c7.12,0,10.68,3.623,10.68,10.865v19.264h-8.098V28.187    c0-1.505-0.189-2.685-0.572-3.537s-1.01-1.429-1.882-1.73c-0.914-0.281-1.957-0.341-3.127-0.181    c-2.146,0.161-4.292,1.415-6.437,3.762v20.348h-8.099V17.381h7.874V21.113z"/>
		<path d="M197.613,10.127h-8.04V3.625h8.04V10.127z M197.613,46.848h-8.04V17.381h8.04V46.848z"/>
	</g>
	<path d="M64.532,83.404h-8.078V41.773h8.078V83.404z"/>
	<path d="M83.813,84.111c-2.42,0-4.564-0.363-6.434-1.092c-1.87-0.728-3.445-1.77-4.724-3.123c-1.28-1.354-2.261-3.006-2.94-4.955   c-0.68-1.948-1.02-4.142-1.02-6.585c0-2.48,0.334-4.696,1.005-6.645c0.67-1.951,1.635-3.601,2.895-4.955   c1.26-1.353,2.794-2.385,4.604-3.091c1.81-0.71,3.875-1.062,6.194-1.062c2.22,0,4.224,0.338,6.014,1.015   c1.79,0.678,3.319,1.677,4.589,3.002c1.27,1.32,2.245,2.953,2.925,4.891c0.679,1.938,1.02,4.148,1.02,6.63v1.878H76.525   c0.06,1.579,0.285,2.938,0.674,4.077c0.39,1.137,0.904,2.07,1.545,2.798c0.64,0.73,1.389,1.267,2.25,1.617   c0.859,0.349,1.799,0.523,2.819,0.523c1.58,0,2.919-0.349,4.02-1.047c1.099-0.696,1.899-1.896,2.4-3.599h7.109   c-0.281,1.557-0.806,2.942-1.575,4.152c-0.771,1.211-1.74,2.229-2.91,3.062c-1.17,0.83-2.52,1.457-4.05,1.875   C87.278,83.898,85.613,84.111,83.813,84.111z M90.233,65.249c-0.3-2.623-1.045-4.583-2.235-5.876   c-1.19-1.292-2.726-1.938-4.604-1.938c-1.859,0-3.385,0.646-4.575,1.938c-1.189,1.293-1.935,3.253-2.234,5.876H90.233z"/>
	<path d="M129.143,81.372c0,4.861-1.16,8.451-3.479,10.77c-2.32,2.316-5.83,3.478-10.528,3.478c-2.141,0-4.01-0.226-5.609-0.678   c-1.601-0.45-2.925-1.099-3.975-1.938c-1.05-0.841-1.841-1.835-2.37-2.983c-0.53-1.15-0.795-2.432-0.795-3.847h7.319   c0.12,1.478,0.604,2.58,1.455,3.309c0.85,0.728,2.234,1.09,4.154,1.09c1.32,0,2.395-0.214,3.225-0.645   c0.829-0.431,1.475-1.035,1.935-1.815s0.774-1.729,0.945-2.847c0.169-1.118,0.255-2.365,0.255-3.737v-1.969   c-2.46,2.871-5.31,4.306-8.55,4.306c-1.899,0-3.579-0.343-5.039-1.029c-1.46-0.688-2.694-1.683-3.704-2.986   c-1.01-1.302-1.775-2.9-2.295-4.8c-0.521-1.897-0.78-4.055-0.78-6.477c0-2.254,0.27-4.357,0.81-6.307s1.324-3.636,2.354-5.063   c1.029-1.424,2.314-2.548,3.854-3.368c1.54-0.818,3.319-1.229,5.339-1.229c1.62,0,3.09,0.236,4.41,0.706   c1.319,0.474,2.55,1.221,3.689,2.247v-2.276h7.379V81.372z M121.554,61.097c-1.8-1.847-3.88-2.771-6.239-2.771   c-1.92,0-3.439,0.828-4.56,2.478c-1.12,1.651-1.68,4.241-1.68,7.769c0,3.119,0.495,5.487,1.484,7.107   c0.99,1.621,2.455,2.432,4.395,2.432c1.22,0,2.375-0.374,3.465-1.122c1.09-0.749,2.134-1.833,3.135-3.248V61.097z"/>
	<path d="M143.208,57.097c2.877-2.996,6.127-4.492,9.754-4.492c7.192,0,10.788,3.702,10.788,11.106v19.693h-8.179V64.327   c0-1.538-0.194-2.744-0.579-3.617c-0.388-0.869-1.021-1.46-1.9-1.768c-0.924-0.289-1.973-0.35-3.153-0.186   c-2.171,0.165-4.337,1.446-6.505,3.847v20.801h-8.178V53.281h7.952V57.097z"/>
	<path d="M187.783,80.634c-1.303,1.169-2.771,2.042-4.411,2.616c-1.642,0.573-3.5,0.861-5.579,0.861c-1.44,0-2.781-0.191-4.019-0.57   c-1.239-0.379-2.316-0.938-3.227-1.676c-0.91-0.739-1.63-1.656-2.16-2.755c-0.528-1.098-0.794-2.364-0.794-3.799   c0-6.974,5.858-10.461,17.578-10.461h2.552c0-1.581-0.053-2.739-0.152-3.479c-0.098-0.491-0.239-0.942-0.42-1.354   c-0.181-0.408-0.441-0.769-0.779-1.076c-0.36-0.534-0.929-0.917-1.708-1.153c-0.78-0.234-1.723-0.354-2.819-0.354   c-1.981,0-3.477,0.373-4.486,1.122c-1.009,0.75-1.584,1.863-1.726,3.339h-6.838c0.398-6.195,4.837-9.291,13.317-9.291   c2.061,0,3.874,0.164,5.446,0.491c1.569,0.328,2.984,0.913,4.245,1.754c1.178,0.78,2.057,1.877,2.64,3.292   c0.577,1.417,0.867,3.344,0.867,5.784v19.479h-7.527V80.634z M187.724,69.527h-2.94c-3.161,0-5.519,0.414-7.078,1.246   c-1.561,0.829-2.34,2.19-2.34,4.075c0,1.415,0.469,2.468,1.407,3.154c0.939,0.688,2.191,1.032,3.753,1.032   c0.719,0,1.428-0.088,2.128-0.262c0.698-0.175,1.357-0.41,1.979-0.71c0.62-0.296,1.196-0.665,1.725-1.107   c0.53-0.438,0.984-0.927,1.366-1.459V69.527z"/>
	<path d="M249.061,83.404h-8.028V64.327c0-2.094-0.335-3.595-1.002-4.507c-0.665-0.913-1.769-1.37-3.304-1.37   c-1.219,0-2.427,0.353-3.622,1.063c-1.2,0.704-3.401,1.736-4.554,3.09v20.801h-7.971V64.327c0-2.094-0.335-3.595-0.999-4.507   c-0.666-0.913-1.758-1.37-3.269-1.37c-1.244,0-2.463,0.353-3.66,1.063c-1.199,0.704-3.02,1.736-4.194,3.09v20.801h-8.209V53.281   h7.973v3.815c1.467-1.498,3.653-2.62,5.292-3.368c1.64-0.75,3.341-1.124,5.102-1.124c4.898,0,7.448,1.774,8.919,5.322   c0.765-0.801,2.576-1.527,3.365-2.185c0.788-0.657,1.614-1.215,2.476-1.679c0.855-0.459,1.754-0.817,2.689-1.074   c0.937-0.258,1.938-0.385,3.003-0.385c7.046,0,9.993,3.702,9.993,11.106V83.404z"/>
	<path d="M262.666,46.878h-8.292v-6.646h8.292V46.878z M262.666,83.404h-8.292V53.281h8.292V83.404z"/>
	<g>
		<path d="M253.576,90.312c0,0.186-0.032,0.352-0.096,0.499c-0.063,0.146-0.148,0.276-0.257,0.391    c-0.107,0.114-0.234,0.212-0.376,0.29c-0.145,0.082-0.297,0.148-0.459,0.2c-0.163,0.053-0.33,0.092-0.502,0.116    c-0.17,0.024-0.339,0.036-0.504,0.036c-0.356,0-0.685-0.016-0.981-0.048c-0.3-0.03-0.591-0.082-0.88-0.152v-0.837    c0.308,0.086,0.615,0.152,0.918,0.198c0.305,0.045,0.605,0.069,0.908,0.069c0.436,0,0.758-0.06,0.97-0.178    c0.211-0.121,0.313-0.29,0.313-0.512c0-0.093-0.015-0.179-0.049-0.253c-0.033-0.074-0.094-0.147-0.182-0.215    c-0.086-0.067-0.222-0.139-0.404-0.213c-0.186-0.072-0.435-0.156-0.753-0.252c-0.238-0.07-0.458-0.148-0.658-0.238    c-0.2-0.089-0.373-0.193-0.521-0.318c-0.147-0.122-0.262-0.265-0.347-0.43c-0.083-0.162-0.126-0.357-0.126-0.581    c0-0.146,0.035-0.307,0.103-0.482c0.067-0.175,0.185-0.337,0.349-0.487c0.164-0.151,0.387-0.277,0.665-0.377    c0.281-0.099,0.629-0.148,1.05-0.148c0.208,0,0.436,0.013,0.686,0.035c0.254,0.022,0.515,0.062,0.787,0.117v0.813    c-0.286-0.07-0.559-0.122-0.813-0.153c-0.26-0.033-0.48-0.051-0.669-0.051c-0.229,0-0.42,0.018-0.575,0.052    c-0.156,0.036-0.282,0.084-0.378,0.146c-0.097,0.062-0.165,0.133-0.206,0.215c-0.043,0.082-0.063,0.17-0.063,0.265    s0.019,0.18,0.056,0.256c0.035,0.077,0.104,0.151,0.204,0.223c0.101,0.073,0.239,0.144,0.417,0.216    c0.178,0.07,0.412,0.148,0.698,0.233c0.311,0.092,0.571,0.188,0.786,0.285c0.213,0.1,0.387,0.212,0.518,0.334    c0.134,0.122,0.229,0.261,0.286,0.415C253.546,89.942,253.576,90.116,253.576,90.312z"/>
		<path d="M256.487,87.859h0.616l0.02,0.717c0.23-0.276,0.457-0.477,0.68-0.601c0.224-0.124,0.449-0.187,0.677-0.187    c0.402,0,0.709,0.131,0.915,0.393c0.209,0.26,0.305,0.647,0.288,1.162h-0.681c0.007-0.341-0.042-0.587-0.149-0.742    c-0.106-0.154-0.264-0.23-0.471-0.23c-0.09,0-0.181,0.016-0.272,0.048c-0.092,0.033-0.185,0.086-0.281,0.156    c-0.099,0.071-0.201,0.161-0.311,0.272c-0.107,0.11-0.223,0.245-0.347,0.403v2.499h-0.684V87.859z"/>
		<path d="M263.708,86.505v4.646h1.235v0.6h-3.324v-0.6h1.363v-4.646H263.708z"/>
	</g>
</g>
</svg>