<?xml version="1.0" encoding="UTF-8" standalone="no"?>
<!-- Created with Inkscape (http://www.inkscape.org/) -->

<svg
   width="49.043537mm"
   height="19.829618mm"
   viewBox="0 0 49.043537 19.829619"
   version="1.1"
   id="svg1"
   xml:space="preserve"
   inkscape:export-filename="export.svg"
   inkscape:export-xdpi="96"
   inkscape:export-ydpi="96"
   xmlns:inkscape="http://www.inkscape.org/namespaces/inkscape"
   xmlns:sodipodi="http://sodipodi.sourceforge.net/DTD/sodipodi-0.dtd"
   xmlns="http://www.w3.org/2000/svg"
   xmlns:svg="http://www.w3.org/2000/svg"><sodipodi:namedview
     id="namedview1"
     pagecolor="#505050"
     bordercolor="#eeeeee"
     borderopacity="1"
     inkscape:showpageshadow="0"
     inkscape:pageopacity="0"
     inkscape:pagecheckerboard="0"
     inkscape:deskcolor="#505050"
     inkscape:document-units="mm"
     showguides="true"
     inkscape:lockguides="false"><inkscape:page
       x="0"
       y="0"
       width="49.043537"
       height="19.82962"
       id="page2"
       margin="0"
       bleed="0" /></sodipodi:namedview><defs
     id="defs1" /><g
     inkscape:label="Layer 1"
     inkscape:groupmode="layer"
     id="layer1"
     transform="translate(-71.040741,-139.95512)"><g
       id="g57"
       style="display:inline"><g
         id="g40"
         inkscape:label="REVOLTI"><path
           style="display:inline;fill:none;fill-opacity:1;fill-rule:evenodd;stroke:#c42229;stroke-width:1.248;stroke-linecap:round;stroke-linejoin:round;stroke-dasharray:none;stroke-opacity:1"
           d="m 71.664741,152.6739 v -9.98272 c 0,0 1.338221,0 2.007332,0 1.102741,0 2.384339,0.62412 2.384339,2.38434 0,2.38403 -3.008454,2.38403 -3.008454,2.38403 l 4.076973,5.21435"
           id="path16"
           sodipodi:nodetypes="ccsscc" /><path
           style="fill:none;fill-opacity:1;fill-rule:evenodd;stroke:#c42229;stroke-width:1.248;stroke-linecap:round;stroke-linejoin:round;stroke-dasharray:none;stroke-opacity:1"
           d="m 83.08908,142.69118 c 0,0 -2.534457,1e-5 -3.801685,0 -0.624119,0 -0.624119,0 -0.624119,0.62412 -10e-7,1.45224 0,4.35673 0,4.35673 h 3.943902 -3.943902 c 0,0 -2e-6,2.91851 0,4.37776 10e-7,0.62412 0,0.62411 0.624119,0.62411 1.267229,0 3.801686,0 3.801686,0"
           id="path19"
           sodipodi:nodetypes="csscccssc" /><path
           style="fill:none;fill-opacity:1;fill-rule:evenodd;stroke:#c42229;stroke-width:1.248;stroke-linecap:round;stroke-linejoin:round;stroke-dasharray:none;stroke-opacity:1"
           d="m 84.578292,142.69118 c 0,0 2.171671,6.45165 3.221728,9.57119 0.182683,0.54272 0.963493,0.54272 1.146176,0 1.050057,-3.11954 3.221726,-9.57119 3.221726,-9.57119"
           id="path20"
           sodipodi:nodetypes="cssc" /><path
           style="fill:none;fill-opacity:1;fill-rule:evenodd;stroke:#c42229;stroke-width:1.248;stroke-linecap:round;stroke-linejoin:round;stroke-dasharray:none;stroke-opacity:1"
           d="m 105.25712,142.69118 c 0,0 2e-5,6.23907 0,9.35861 0,0.62412 -1e-5,0.62429 0.62411,0.62411 1.06464,-3.1e-4 3.19391,0 3.19391,0"
           id="path22"
           sodipodi:nodetypes="cssc" /><path
           style="fill:none;fill-opacity:1;fill-rule:evenodd;stroke:#c42229;stroke-width:1.248;stroke-linecap:round;stroke-linejoin:round;stroke-dasharray:none;stroke-opacity:1"
           d="m 111.10966,152.6739 v -9.98272 h -2.92627 5.85254"
           id="path23" /><path
           style="fill:none;fill-opacity:1;fill-rule:evenodd;stroke:#c42229;stroke-width:1.248;stroke-linecap:round;stroke-linejoin:round;stroke-dasharray:none;stroke-opacity:1"
           d="m 115.62439,142.69118 v 9.98272"
           id="path24" /><ellipse
           style="fill:none;fill-opacity:1;fill-rule:evenodd;stroke:#c42229;stroke-width:1.27498;stroke-linecap:round;stroke-linejoin:round;stroke-dasharray:none;stroke-opacity:1"
           id="path25"
           cx="98.106621"
           cy="147.68254"
           rx="5.2999568"
           ry="4.9779882" /></g><text
         xml:space="preserve"
         style="font-style:normal;font-variant:normal;font-weight:normal;font-stretch:normal;font-size:4.58611px;line-height:1;font-family:'Courier New';-inkscape-font-specification:'Courier New';text-align:start;letter-spacing:-0.108479px;writing-mode:lr-tb;direction:ltr;text-anchor:start;display:inline;fill:#525149;fill-opacity:1;fill-rule:evenodd;stroke:none;stroke-width:0.15;stroke-linecap:round;stroke-linejoin:round;stroke-dasharray:none;stroke-opacity:1"
         x="92.307846"
         y="159.72876"
         id="text36-9"
         inkscape:label="LATTONERIE"><tspan
           sodipodi:role="line"
           id="tspan36-1"
           style="font-style:normal;font-variant:normal;font-weight:normal;font-stretch:normal;font-size:4.58611px;font-family:Corbel;-inkscape-font-specification:Corbel;letter-spacing:-0.108479px;fill:#525149;fill-opacity:1;stroke:none;stroke-width:0.15;stroke-dasharray:none;stroke-opacity:1"
           x="92.307846"
           y="159.72876">LATTONERIE</tspan></text><text
         xml:space="preserve"
         style="font-style:normal;font-variant:normal;font-weight:normal;font-stretch:normal;font-size:5.70566px;line-height:1;font-family:Corbel;-inkscape-font-specification:Corbel;text-align:start;letter-spacing:0.118502px;writing-mode:lr-tb;direction:ltr;text-anchor:start;display:inline;fill:#525149;fill-opacity:1;fill-rule:evenodd;stroke:none;stroke-width:0.186618;stroke-linecap:round;stroke-linejoin:round;stroke-dasharray:none;stroke-opacity:1"
         x="116.964"
         y="143.7524"
         id="text40"
         inkscape:label="marchio registrato"><tspan
           sodipodi:role="line"
           id="tspan40"
           style="fill:#525149;fill-opacity:1;stroke-width:0.186618"
           x="116.964"
           y="143.7524">®</tspan></text><path
         style="display:inline;fill:none;fill-opacity:1;fill-rule:evenodd;stroke:#525149;stroke-width:0.835;stroke-linecap:round;stroke-linejoin:round;stroke-dasharray:none;stroke-opacity:1"
         d="m 95.385535,149.69142 v -3.7803 h 1.455575 c 0.469987,0 0.939911,0.46992 0.939846,0.93997 6.5e-5,0.46986 -0.469859,0.93985 -0.93991,0.93991 -1e-6,0.24932 0,0.51675 6.5e-5,0.76446 0.469986,0.39783 1.341987,1.13596 1.341987,1.13596 h 1.562585 v -3.7803 h -1.059826 2.119653"
         id="path45"
         sodipodi:nodetypes="ccscccccccc" /></g></g></svg>
